<svg width="107" height="36" viewBox="0 0 107 36" fill="none" xmlns="http://www.w3.org/2000/svg">
<rect x="0.405303" y="0.405303" width="106.189" height="34.8561" rx="5.26894" fill="black"/>
<rect x="0.405303" y="0.405303" width="106.189" height="34.8561" rx="5.26894" stroke="#A6A6A6" stroke-width="0.810606"/>
<path d="M72.6939 17.1202V19.1631H71.4134V20.5027H72.6939V25.0547C72.6939 26.609 73.397 27.2307 75.166 27.2307C75.4768 27.2307 75.7729 27.1937 76.032 27.1493V25.8244C75.8099 25.8467 75.6693 25.8615 75.425 25.8615C74.6331 25.8615 74.2852 25.4914 74.2852 24.6476V20.5027H76.032V19.1631H74.2852V17.1202H72.6939Z" fill="white"/>
<path d="M80.5383 27.3418C82.892 27.3418 84.3353 25.7652 84.3353 23.1525C84.3353 20.5546 82.8846 18.9706 80.5383 18.9706C78.1846 18.9706 76.7339 20.5546 76.7339 23.1525C76.7339 25.7652 78.1772 27.3418 80.5383 27.3418ZM80.5383 25.9281C79.1542 25.9281 78.3771 24.9141 78.3771 23.1525C78.3771 21.4057 79.1542 20.3843 80.5383 20.3843C81.915 20.3843 82.6996 21.4057 82.6996 23.1525C82.6996 24.9067 81.915 25.9281 80.5383 25.9281Z" fill="white"/>
<path d="M85.5702 27.1863H87.1615V22.4271C87.1615 21.2947 88.0127 20.5324 89.2191 20.5324C89.5004 20.5324 89.9741 20.5842 90.1073 20.6286V19.0595C89.9371 19.015 89.6336 18.9928 89.3968 18.9928C88.3457 18.9928 87.4502 19.5702 87.2207 20.3621H87.1023V19.1261H85.5702V27.1863Z" fill="white"/>
<path d="M94.0585 20.3251C95.2354 20.3251 96.0051 21.1467 96.0421 22.4123H91.9713C92.0601 21.1541 92.8817 20.3251 94.0585 20.3251ZM96.0347 25.0103C95.7387 25.6394 95.0799 25.9873 94.1177 25.9873C92.8447 25.9873 92.0231 25.0917 91.9713 23.678V23.5892H97.6631V23.0341C97.6631 20.5027 96.3086 18.9706 94.0659 18.9706C91.7937 18.9706 90.3504 20.6064 90.3504 23.1821C90.3504 25.7578 91.7641 27.3418 94.0733 27.3418C95.9163 27.3418 97.2042 26.4536 97.5669 25.0103H96.0347Z" fill="white"/>
<path d="M62.2582 24.2098C62.3809 26.189 64.0303 27.4548 66.4852 27.4548C69.1088 27.4548 70.7505 26.1277 70.7505 24.0103C70.7505 22.3456 69.8146 21.4251 67.5438 20.8957L66.3241 20.5965C64.8818 20.259 64.2988 19.8064 64.2988 19.0162C64.2988 18.0189 65.204 17.3669 66.5619 17.3669C67.8507 17.3669 68.7406 18.0036 68.9017 19.0239H70.574C70.4743 17.1597 68.8326 15.8479 66.5849 15.8479C64.1684 15.8479 62.5574 17.1597 62.5574 19.1313C62.5574 20.7576 63.4703 21.7242 65.4725 22.1922L66.8994 22.5374C68.3647 22.8826 69.0091 23.389 69.0091 24.2328C69.0091 25.2148 67.9964 25.9282 66.6156 25.9282C65.135 25.9282 64.107 25.2608 63.9612 24.2098H62.2582Z" fill="white"/>
<path d="M45.7736 18.9928C44.6782 18.9928 43.7308 19.5405 43.2423 20.4583H43.1239V19.1261H41.5918V29.8657H43.1831V25.9651H43.3089C43.7308 26.8163 44.6412 27.3196 45.7884 27.3196C47.8239 27.3196 49.1191 25.7134 49.1191 23.1525C49.1191 20.5916 47.8239 18.9928 45.7736 18.9928ZM45.3221 25.8911C43.9899 25.8911 43.1535 24.84 43.1535 23.1599C43.1535 21.4723 43.9899 20.4213 45.3295 20.4213C46.6766 20.4213 47.4834 21.4501 47.4834 23.1525C47.4834 24.8622 46.6766 25.8911 45.3221 25.8911Z" fill="white"/>
<path d="M54.6874 18.9928C53.592 18.9928 52.6446 19.5405 52.1561 20.4583H52.0377V19.1261H50.5056V29.8657H52.0969V25.9651H52.2227C52.6446 26.8163 53.555 27.3196 54.7022 27.3196C56.7377 27.3196 58.0329 25.7134 58.0329 23.1525C58.0329 20.5916 56.7377 18.9928 54.6874 18.9928ZM54.236 25.8911C52.9037 25.8911 52.0673 24.84 52.0673 23.1599C52.0673 21.4723 52.9037 20.4213 54.2434 20.4213C55.5904 20.4213 56.3972 21.4501 56.3972 23.1525C56.3972 24.8622 55.5904 25.8911 54.236 25.8911Z" fill="white"/>
<path d="M38.7367 27.1863H40.5625L36.5656 16.1164H34.7168L30.72 27.1863H32.4844L33.5047 24.2482H37.724L38.7367 27.1863ZM35.553 18.1263H35.6834L37.2867 22.8059H33.942L35.553 18.1263Z" fill="white"/>
<path d="M31.7886 7.76715V13.1074H33.7167C35.308 13.1074 36.2295 12.1266 36.2295 10.4206C36.2295 8.74045 35.3006 7.76715 33.7167 7.76715H31.7886ZM32.6175 8.5221H33.6242C34.7307 8.5221 35.3857 9.22525 35.3857 10.4317C35.3857 11.6567 34.7418 12.3524 33.6242 12.3524H32.6175V8.5221Z" fill="white"/>
<path d="M39.0517 13.1851C40.2285 13.1851 40.9502 12.3968 40.9502 11.0904C40.9502 9.79147 40.2248 8.9995 39.0517 8.9995C37.8749 8.9995 37.1495 9.79147 37.1495 11.0904C37.1495 12.3968 37.8712 13.1851 39.0517 13.1851ZM39.0517 12.4782C38.3597 12.4782 37.9711 11.9712 37.9711 11.0904C37.9711 10.2171 38.3597 9.70635 39.0517 9.70635C39.74 9.70635 40.1323 10.2171 40.1323 11.0904C40.1323 11.9675 39.74 12.4782 39.0517 12.4782Z" fill="white"/>
<path d="M47.0957 9.07722H46.3L45.5821 12.1526H45.5192L44.6902 9.07722H43.9278L43.0989 12.1526H43.0396L42.318 9.07722H41.5112L42.6215 13.1074H43.4393L44.2683 10.1393H44.3312L45.1639 13.1074H45.9892L47.0957 9.07722Z" fill="white"/>
<path d="M48.012 13.1074H48.8077V10.75C48.8077 10.1208 49.1814 9.72855 49.7698 9.72855C50.3583 9.72855 50.6395 10.0505 50.6395 10.6982V13.1074H51.4352V10.4983C51.4352 9.53981 50.9393 8.9995 50.04 8.9995C49.4331 8.9995 49.0334 9.26966 48.8373 9.71745H48.778V9.07722H48.012V13.1074Z" fill="white"/>
<path d="M52.6883 13.1074H53.4839V7.50439H52.6883V13.1074Z" fill="white"/>
<path d="M56.4764 13.1851C57.6532 13.1851 58.3749 12.3968 58.3749 11.0904C58.3749 9.79147 57.6495 8.9995 56.4764 8.9995C55.2995 8.9995 54.5742 9.79147 54.5742 11.0904C54.5742 12.3968 55.2958 13.1851 56.4764 13.1851ZM56.4764 12.4782C55.7843 12.4782 55.3958 11.9712 55.3958 11.0904C55.3958 10.2171 55.7843 9.70635 56.4764 9.70635C57.1647 9.70635 57.557 10.2171 57.557 11.0904C57.557 11.9675 57.1647 12.4782 56.4764 12.4782Z" fill="white"/>
<path d="M60.7456 12.5041C60.3126 12.5041 59.998 12.2932 59.998 11.9305C59.998 11.5752 60.2497 11.3865 60.8048 11.3495L61.7892 11.2866V11.6233C61.7892 12.1229 61.3451 12.5041 60.7456 12.5041ZM60.542 13.174C61.0712 13.174 61.5116 12.9445 61.7522 12.5411H61.8151V13.1074H62.5812V10.354C62.5812 9.50281 62.0112 8.9995 61.0009 8.9995C60.0868 8.9995 59.4355 9.44359 59.3541 10.1356H60.1239C60.2127 9.85068 60.5198 9.68785 60.9639 9.68785C61.5079 9.68785 61.7892 9.9284 61.7892 10.354V10.7019L60.6975 10.7648C59.739 10.824 59.1987 11.2422 59.1987 11.9675C59.1987 12.704 59.7649 13.174 60.542 13.174Z" fill="white"/>
<path d="M65.2812 13.174C65.8364 13.174 66.3064 12.9112 66.5469 12.4708H66.6098V13.1074H67.3722V7.50439H66.5765V9.71745H66.5173C66.2989 9.27336 65.8326 9.01061 65.2812 9.01061C64.2635 9.01061 63.6085 9.81737 63.6085 11.0904C63.6085 12.3672 64.2561 13.174 65.2812 13.174ZM65.507 9.72485C66.1731 9.72485 66.5913 10.2541 66.5913 11.0941C66.5913 11.9379 66.1768 12.4597 65.507 12.4597C64.8334 12.4597 64.4301 11.9453 64.4301 11.0904C64.4301 10.243 64.8371 9.72485 65.507 9.72485Z" fill="white"/>
<path d="M72.5318 13.1851C73.7086 13.1851 74.4303 12.3968 74.4303 11.0904C74.4303 9.79147 73.7049 8.9995 72.5318 8.9995C71.3549 8.9995 70.6296 9.79147 70.6296 11.0904C70.6296 12.3968 71.3512 13.1851 72.5318 13.1851ZM72.5318 12.4782C71.8397 12.4782 71.4512 11.9712 71.4512 11.0904C71.4512 10.2171 71.8397 9.70635 72.5318 9.70635C73.2201 9.70635 73.6124 10.2171 73.6124 11.0904C73.6124 11.9675 73.2201 12.4782 72.5318 12.4782Z" fill="white"/>
<path d="M75.4835 13.1074H76.2792V10.75C76.2792 10.1208 76.653 9.72855 77.2414 9.72855C77.8298 9.72855 78.1111 10.0505 78.1111 10.6982V13.1074H78.9067V10.4983C78.9067 9.53981 78.4108 8.9995 77.5115 8.9995C76.9046 8.9995 76.5049 9.26966 76.3088 9.71745H76.2496V9.07722H75.4835V13.1074Z" fill="white"/>
<path d="M82.5712 8.07431V9.09572H81.931V9.76556H82.5712V12.0415C82.5712 12.8187 82.9228 13.1296 83.8073 13.1296C83.9627 13.1296 84.1107 13.1111 84.2403 13.0888V12.4264C84.1292 12.4375 84.0589 12.4449 83.9368 12.4449C83.5408 12.4449 83.3669 12.2599 83.3669 11.838V9.76556H84.2403V9.09572H83.3669V8.07431H82.5712Z" fill="white"/>
<path d="M85.3083 13.1074H86.104V10.7537C86.104 10.143 86.4666 9.73225 87.118 9.73225C87.6805 9.73225 87.9803 10.0579 87.9803 10.7019V13.1074H88.7759V10.5057C88.7759 9.54722 88.2467 9.0032 87.3881 9.0032C86.7812 9.0032 86.3556 9.27336 86.1595 9.72485H86.0966V7.50439H85.3083V13.1074Z" fill="white"/>
<path d="M91.6462 9.67674C92.2346 9.67674 92.6195 10.0875 92.638 10.7204H90.6026C90.647 10.0912 91.0578 9.67674 91.6462 9.67674ZM92.6343 12.0193C92.4863 12.3339 92.1569 12.5078 91.6758 12.5078C91.0393 12.5078 90.6285 12.06 90.6026 11.3532V11.3088H93.4485V11.0312C93.4485 9.76556 92.7713 8.9995 91.6499 8.9995C90.5138 8.9995 89.7921 9.81737 89.7921 11.1052C89.7921 12.3931 90.499 13.1851 91.6536 13.1851C92.5751 13.1851 93.2191 12.741 93.4004 12.0193H92.6343Z" fill="white"/>
<path d="M22.0856 18.101C22.1049 16.6021 22.9099 15.1838 24.1869 14.3987C23.3813 13.2482 22.032 12.5187 20.6281 12.4748C19.1308 12.3176 17.6792 13.3708 16.9162 13.3708C16.1384 13.3708 14.9636 12.4904 13.6986 12.5164C12.0497 12.5697 10.5125 13.5072 9.71026 14.9488C7.98577 17.9344 9.27208 22.3224 10.924 24.7358C11.7505 25.9175 12.7164 27.2376 13.9803 27.1908C15.2171 27.1395 15.679 26.4021 17.1719 26.4021C18.651 26.4021 19.0844 27.1908 20.3739 27.161C21.701 27.1395 22.5372 25.974 23.3347 24.781C23.9285 23.939 24.3855 23.0083 24.6886 22.0236C23.129 21.3639 22.0874 19.7944 22.0856 18.101Z" fill="white"/>
<path d="M19.6499 10.8876C20.3735 10.0189 20.73 8.90242 20.6437 7.77515C19.5382 7.89126 18.517 8.41962 17.7836 9.25497C17.0664 10.0711 16.6932 11.168 16.7638 12.2522C17.8697 12.2636 18.9569 11.7495 19.6499 10.8876Z" fill="white"/>
</svg>
