<svg width="118" height="117" viewBox="0 0 118 117" fill="none" xmlns="http://www.w3.org/2000/svg">
<path fill-rule="evenodd" clip-rule="evenodd" d="M42.4396 18.5201C44.4967 16.1471 47.0403 14.2445 49.8977 12.9416C52.7552 11.6386 55.8595 10.9658 59 10.9687C65.6154 10.9687 71.5434 13.8937 75.5604 18.5201C78.6935 18.2964 81.8381 18.7497 84.7806 19.8491C87.723 20.9485 90.3944 22.6683 92.6131 24.8917C94.8357 27.1102 96.5549 29.7808 97.6543 32.7222C98.7537 35.6637 99.2074 38.8073 98.9848 41.9396C101.357 43.9971 103.259 46.5409 104.561 49.3983C105.863 52.2558 106.535 55.3599 106.531 58.5C106.534 61.6405 105.861 64.7448 104.558 67.6023C103.255 70.4597 101.353 73.0033 98.9799 75.0604C99.2026 78.1927 98.7488 81.3363 97.6494 84.2777C96.5501 87.2192 94.8308 89.8898 92.6083 92.1082C90.3898 94.3308 87.7193 96.05 84.7778 97.1494C81.8363 98.2488 78.6927 98.7025 75.5604 98.4799C73.5033 100.853 70.9597 102.755 68.1023 104.058C65.2449 105.361 62.1405 106.034 59 106.031C55.8595 106.034 52.7552 105.361 49.8977 104.058C47.0403 102.755 44.4967 100.853 42.4396 98.4799C39.3069 98.7042 36.1625 98.2517 33.2201 97.1532C30.2776 96.0546 27.6061 94.3357 25.3869 92.1131C23.1637 89.8941 21.4441 87.2228 20.3447 84.2804C19.2453 81.338 18.7919 78.1935 19.0153 75.0604C16.6431 73.0029 14.7415 70.4591 13.4394 67.6016C12.1372 64.7442 11.4652 61.6401 11.4688 58.5C11.4688 51.8846 14.3938 45.9566 19.0201 41.9396C18.7971 38.8073 19.2507 35.6636 20.3501 32.7221C21.4495 29.7805 23.169 27.11 25.3918 24.8917C27.61 22.669 30.2806 20.9495 33.2221 19.8501C36.1636 18.7507 39.3073 18.2971 42.4396 18.5201ZM76.5988 49.6567C76.8913 49.267 77.1029 48.8227 77.2212 48.35C77.3396 47.8773 77.3622 47.3857 77.2879 46.9041C77.2135 46.4225 77.0436 45.9606 76.7882 45.5456C76.5328 45.1306 76.197 44.7709 75.8005 44.4875C75.4041 44.2042 74.955 44.0029 74.4796 43.8956C74.0043 43.7883 73.5123 43.7771 73.0326 43.8626C72.5529 43.9482 72.0951 44.1287 71.6861 44.3937C71.2772 44.6587 70.9253 45.0028 70.6513 45.4057L54.8758 67.4895L46.9588 59.5725C46.2657 58.9267 45.3489 58.5751 44.4017 58.5918C43.4545 58.6085 42.5507 58.9922 41.8809 59.6621C41.211 60.332 40.8272 61.2357 40.8105 62.1829C40.7938 63.1302 41.1454 64.0469 41.7913 64.74L52.76 75.7087C53.1353 76.0838 53.5878 76.3726 54.086 76.5553C54.5841 76.7379 55.1161 76.8099 55.6449 76.7663C56.1736 76.7227 56.6866 76.5645 57.1481 76.3028C57.6097 76.041 58.0087 75.6819 58.3175 75.2505L76.5988 49.6567Z" fill="#29397E"/>
</svg>
